<svg xmlns="http://www.w3.org/2000/svg" viewBox="0 0 137.5 137.5"><defs><style>.cls-1,.cls-2{fill:#fff;}.cls-1{stroke:#0b1f31;}.cls-1,.cls-2,.cls-3,.cls-4{stroke-linejoin:round;stroke-width:2.5px;}.cls-2,.cls-4{stroke:#5bbeb4;}.cls-3,.cls-4{fill:none;stroke-linecap:round;}.cls-3{stroke:#041e30;}</style></defs><g id="Layer_2" data-name="Layer 2"><g id="Blue"><circle class="cls-1" cx="68.75" cy="68.75" r="67.5"/><path class="cls-2" d="M20.23,68.75A48.52,48.52,0,0,1,68.75,20.23"/><path class="cls-2" d="M117.27,68.75a48.52,48.52,0,0,1-48.52,48.52"/><path class="cls-3" d="M96.06,62.22l-3.73-9-5.47,1.82a23.43,23.43,0,0,0-5.42-5.42l1.82-5.47-9-3.73-2.59,5.16a23.44,23.44,0,0,0-7.66,0l-2.58-5.16-9,3.73,1.83,5.47a23.43,23.43,0,0,0-5.42,5.42l-5.48-1.82-3.72,9,5.16,2.59a23.17,23.17,0,0,0,0,7.66l-5.16,2.58,3.72,9,5.48-1.83a23,23,0,0,0,5.42,5.42l-1.83,5.48,9,3.72L64,91.68a23.23,23.23,0,0,0,7.67,0l2.58,5.16,9-3.72-1.82-5.48a23,23,0,0,0,5.42-5.42l5.47,1.83,3.73-9L90.9,72.47a23.5,23.5,0,0,0,0-7.67Z"/><circle class="cls-3" cx="68.21" cy="68.99" r="9.28"/><polyline class="cls-4" points="61.34 12.65 70.77 20.42 61.34 28.18"/><polyline class="cls-4" points="76.62 125 67.19 117.23 76.62 109.47"/></g></g></svg>