<?xml version="1.0" encoding="UTF-8"?><svg id="Layer_2" xmlns="http://www.w3.org/2000/svg" viewBox="0 0 66.04 70.48"><defs><style>.cls-1{stroke:#003c4c;}.cls-1,.cls-2{fill:none;stroke-linecap:round;stroke-linejoin:round;stroke-width:2.5px;}.cls-2{stroke:#1ecad3;}</style></defs><g id="Blue"><g><path class="cls-1" d="M44.11,61.84v-4.43c-3.63-2.83-4.74-6.53-5.91-8.87-1.17-2.34-2.96-5.91-2.96-5.91,0-1.43,3.03-2.98,4.56-1.48s2.89,2.96,2.89,2.96h1.41V27.85c0-1.63,1.4-2.96,3.03-2.96h-.04c1.63,0,2.92,1.32,2.92,2.96v10.34l10.27,2.13c2.49,.5,4.51,2.31,4.51,5.26v7.39c0,1.66-1.48,2.9-1.48,4.43v4.43h-19.21Z"/><rect class="cls-1" x="41.15" y="61.84" width="23.64" height="7.39"/><polyline class="cls-1" points="36.72 66.27 1.25 66.27 1.25 1.25 63.32 1.25 63.32 35.24"/><line class="cls-1" x1="1.25" y1="10.12" x2="63.32" y2="10.12"/><line class="cls-1" x1="5.68" y1="5.68" x2="8.64" y2="5.68"/><line class="cls-1" x1="11.59" y1="5.68" x2="14.55" y2="5.68"/><polyline class="cls-2" points="26.37 27.85 26.37 33.76 10.12 33.76 10.12 18.98 21.94 18.98"/><rect class="cls-2" x="10.12" y="42.63" width="16.26" height="14.78"/><polyline class="cls-1" points="14.55 24.89 18.98 29.33 27.85 18.98"/><line class="cls-2" x1="33.76" y1="20.46" x2="57.41" y2="20.46"/><line class="cls-2" x1="33.76" y1="26.37" x2="39.67" y2="26.37"/><line class="cls-2" x1="33.76" y1="32.28" x2="39.67" y2="32.28"/></g></g></svg>