<?xml version="1.0" encoding="UTF-8"?><svg id="Layer_2" xmlns="http://www.w3.org/2000/svg" viewBox="0 0 67.65 56.26"><defs><style>.cls-1,.cls-2,.cls-3{fill:none;stroke-linejoin:round;stroke-width:2.14px;}.cls-1,.cls-3{stroke:#003c4c;}.cls-2{stroke:#1ecad3;}.cls-2,.cls-3{stroke-linecap:round;}</style></defs><g id="Blue"><g><g><rect class="cls-1" x="1.07" y="1.07" width="65.51" height="45.57" rx="1.42" ry="1.42"/><rect class="cls-1" x="6.77" y="6.77" width="54.12" height="32.76"/><line class="cls-1" x1="25.28" y1="55.19" x2="25.28" y2="49.49"/><line class="cls-1" x1="42.37" y1="49.49" x2="42.37" y2="55.19"/><line class="cls-3" x1="49.49" y1="55.19" x2="18.16" y2="55.19"/></g><path class="cls-3" d="M43.67,36.7v-2.72c-.48-.51-5.48-3.27-10.23-3.27s-9.75,2.75-10.23,3.27v2.72"/><path class="cls-3" d="M33.44,18.35h0c-2.11,0-3.84,1.74-3.84,3.88v1.24c0,2.13,1.73,3.88,3.84,3.88h0c2.11,0,3.84-1.74,3.84-3.88v-1.24c0-2.13-1.73-3.88-3.84-3.88Z"/><rect class="cls-2" x="10.85" y="10.4" width="5.78" height="5.78"/><rect class="cls-2" x="20.96" y="10.4" width="5.78" height="5.78"/></g></g></svg>