<?xml version="1.0" encoding="UTF-8"?><svg id="Layer_2" xmlns="http://www.w3.org/2000/svg" viewBox="0 0 60.55 65.15"><defs><style>.cls-1{stroke:#40c2cd;}.cls-1,.cls-2{fill:none;stroke-linecap:round;stroke-linejoin:round;stroke-width:2.06px;}.cls-2{stroke:#003c4c;}</style></defs><g id="Blue"><g><line class="cls-1" x1="27.09" y1="43.55" x2="51.77" y2="43.55"/><line class="cls-1" x1="21.6" y1="7.89" x2="53.15" y2="7.89"/><path class="cls-2" d="M51.79,18.34l-.23-.24c-1.18-1.24-1.52-2.86-.75-3.59l3.28-3.09c1.19-1.13,3.12-1.03,4.3,.21l.23,.24c1.18,1.24,1.18,3.18-.01,4.31l-3.28,3.09c-.77,.73-2.37,.31-3.55-.93Z"/><path class="cls-2" d="M25.72,62.75s1.3-1.38,2.74-2.74c11.18,.82,15.34-6.92,16.46-8.23"/><path class="cls-2" d="M52.65,44.01l-.23-.2c-1.18-1.02-1.63-2.47-.98-3.22l2.75-3.16c.99-1.15,2.78-1.26,3.96-.24l.23,.2c1.18,1.02,1.34,2.8,.35,3.95l-2.75,3.16c-.65,.75-2.14,.52-3.33-.5Z"/><path class="cls-2" d="M25.72,54.52c2.98-8.51,.06-16.14-2.63-19.55,1.13-3.4,1.59-5.82,1.97-9.82,.22-2.3-.76-4.27-1.77-5.69-1.04-1.46-3.58-1.12-4.08,.51-2.24,7.18-2.66,9.13-4.05,12.73-1.55,4.03-.66,9.69-1.43,11.34-.15,.33-3.09,4.99-3.09,4.99"/><path class="cls-2" d="M52.67,35.39l-.23-.2c-1.21-1.04-1.65-2.51-1-3.27l2.8-3.22c1.01-1.17,2.83-1.28,4.03-.24l.23,.2c1.21,1.04,1.36,2.85,.35,4.02l-2.8,3.22c-.66,.76-2.18,.53-3.39-.51Z"/><path class="cls-2" d="M52.67,26.98l-.23-.2c-1.21-1.04-1.65-2.51-1-3.27l2.8-3.22c1.01-1.17,2.83-1.28,4.03-.24l.23,.2c1.21,1.04,1.36,2.85,.35,4.02l-2.8,3.22c-.66,.76-2.18,.53-3.39-.51Z"/><line class="cls-1" x1="35.32" y1="47.66" x2="39.43" y2="47.66"/><path class="cls-2" d="M53.15,12V5.14c0-2.27-1.84-4.11-4.11-4.11H25.72c-2.27,0-4.11,1.84-4.11,4.11v13.72"/><path class="cls-2" d="M25.72,51.77h23.32c2.27,0,4.11-1.84,4.11-4.11h0v-2.74"/><polyline class="cls-1" points="25.72 64.12 7.89 46.29 1.03 53.15 12 64.12"/><line class="cls-1" x1="7.89" y1="53.15" x2="9.26" y2="54.52"/></g></g></svg>