<svg xmlns="http://www.w3.org/2000/svg" viewBox="0 0 127.5 127.5"><defs><style>.cls-1{fill:#fff;}.cls-1,.cls-2,.cls-3{stroke:#0b1f31;}.cls-1,.cls-2,.cls-3,.cls-4,.cls-5{stroke-linejoin:round;stroke-width:2.5px;}.cls-2,.cls-4{fill:none;}.cls-2,.cls-3,.cls-4,.cls-5{stroke-linecap:round;}.cls-3{fill:#1ec0ca;}.cls-4,.cls-5{stroke:#1ec0ca;}.cls-5{fill:#0b1f31;}</style></defs><g id="Layer_2" data-name="Layer 2"><g id="Blue"><circle class="cls-1" cx="63.75" cy="63.75" r="62.5"/><line class="cls-2" x1="17.28" y1="65.35" x2="39.71" y2="65.35"/><line class="cls-2" x1="23.69" y1="55.74" x2="46.12" y2="55.74"/><line class="cls-2" x1="25.29" y1="73.37" x2="46.12" y2="73.37"/><path class="cls-2" d="M38.7,51A28.84,28.84,0,1,1,38,78.39"/><line class="cls-2" x1="63.75" y1="36.51" x2="63.75" y2="30.1"/><line class="cls-2" x1="58.94" y1="30.1" x2="68.56" y2="30.1"/><line class="cls-2" x1="44.52" y1="42.92" x2="39.71" y2="38.11"/><line class="cls-2" x1="42.92" y1="34.9" x2="36.51" y2="41.31"/><line class="cls-3" x1="81.38" y1="42.92" x2="86.19" y2="38.11"/><line class="cls-3" x1="82.98" y1="34.9" x2="89.39" y2="41.31"/><path class="cls-2" d="M50.5,49.28A20.84,20.84,0,0,1,79,51.13"/><circle class="cls-4" cx="63.75" cy="66.96" r="4.81"/><line class="cls-5" x1="59.75" y1="69.62" x2="54.13" y2="73.37"/><line class="cls-5" x1="82.98" y1="54.13" x2="67.75" y2="64.29"/></g></g></svg>