<svg xmlns="http://www.w3.org/2000/svg" viewBox="0 0 137.5 137.5"><defs><style>.cls-1{fill:#fff;stroke:#0b1f31;}.cls-1,.cls-2,.cls-3{stroke-linejoin:round;stroke-width:2.5px;}.cls-2,.cls-3{fill:none;stroke-linecap:round;}.cls-2{stroke:#041e30;}.cls-3{stroke:#5bbeb4;}</style></defs><g id="Layer_2" data-name="Layer 2"><g id="Blue"><circle class="cls-1" cx="68.75" cy="68.75" r="67.5"/><polyline class="cls-2" points="75.67 96.47 75.67 39.87 89.52 39.87 89.52 53.53"/><polyline class="cls-2" points="54.9 96.47 54.9 46.27 67.89 46.27 67.89 96.47"/><polyline class="cls-2" points="34.13 96.47 34.13 60.12 47.98 60.12 47.98 96.47"/><line class="cls-2" x1="28.94" y1="99.93" x2="106.83" y2="99.93"/><path class="cls-3" d="M81.76,62.93a19,19,0,0,1,22.48,30.46"/><path class="cls-3" d="M86.06,82.62v1.73a3.63,3.63,0,0,0,3.5,3.46H93a3.59,3.59,0,0,0,3.46-3.46v-.52a3.15,3.15,0,0,0-2.35-3l-5.66-1.69a3.18,3.18,0,0,1-2.37-3V75.7a3.59,3.59,0,0,1,3.46-3.46H93a3.59,3.59,0,0,1,3.46,3.46v1.73"/><line class="cls-3" x1="91.25" y1="72.24" x2="91.25" y2="67.04"/><line class="cls-3" x1="91.25" y1="87.81" x2="91.25" y2="93.01"/></g></g></svg>