<?xml version="1.0" encoding="UTF-8"?><svg id="Layer_2" xmlns="http://www.w3.org/2000/svg" viewBox="0 0 44.5 47.5"><defs><style>.cls-1{stroke:#003c4c;}.cls-1,.cls-2{fill:none;stroke-linecap:round;stroke-linejoin:round;stroke-width:1.5px;}.cls-2{stroke:#1ecad3;}</style></defs><g id="Blue"><g><path class="cls-1" d="M29.75,41.75v-3c-2.46-1.92-3.21-4.42-4-6-.79-1.58-2-4-2-4,0-.97,2.05-2.02,3.09-1s1.96,2,1.96,2h.96v-11c0-1.1,.94-2,2.05-2h-.02c1.1,0,1.98,.9,1.98,2v7l6.95,1.44c1.69,.34,3.05,1.56,3.05,3.56v5c0,1.12-1,1.96-1,3v3h-13Z"/><rect class="cls-1" x="27.75" y="41.75" width="16" height="5"/><polyline class="cls-1" points="24.75 44.75 .75 44.75 .75 .75 42.75 .75 42.75 23.75"/><line class="cls-1" x1=".75" y1="6.75" x2="42.75" y2="6.75"/><line class="cls-1" x1="3.75" y1="3.75" x2="5.75" y2="3.75"/><line class="cls-1" x1="7.75" y1="3.75" x2="9.75" y2="3.75"/><polyline class="cls-2" points="17.75 18.75 17.75 22.75 6.75 22.75 6.75 12.75 14.75 12.75"/><rect class="cls-2" x="6.75" y="28.75" width="11" height="10"/><polyline class="cls-1" points="9.75 16.75 12.75 19.75 18.75 12.75"/><line class="cls-2" x1="22.75" y1="13.75" x2="38.75" y2="13.75"/><line class="cls-2" x1="22.75" y1="17.75" x2="26.75" y2="17.75"/><line class="cls-2" x1="22.75" y1="21.75" x2="26.75" y2="21.75"/></g></g></svg>