<?xml version="1.0" encoding="UTF-8"?><svg id="Layer_2" xmlns="http://www.w3.org/2000/svg" viewBox="0 0 101.32 75.25"><defs><style>.cls-1{fill:#003b4d;}</style></defs><g id="Layer_1-2"><path id="Path_22" class="cls-1" d="M0,43.81C0,19.84,19.33,4.9,40.72,0c4.38,.52,5.41,6.18,2.58,7.99-9.28,3.35-21.9,11.85-21.9,23.97,0,10.82,7.99,14.43,14.17,15.98,4.38,1.29,7.73,5.41,7.73,11.34,0,8.76-7.99,15.98-17.78,15.98-10.57,0-25.51-9.02-25.51-31.44Zm56.44,0C56.44,19.84,75.76,4.9,97.15,0c4.38,.52,5.41,6.18,2.58,7.99-9.28,3.35-21.9,11.85-21.9,23.97,0,10.82,7.99,14.43,14.17,15.98,4.38,1.29,7.73,5.41,7.73,11.34,0,8.76-7.99,15.98-17.78,15.98-10.57,0-25.51-9.02-25.51-31.44Z"/></g></svg>