<?xml version="1.0" encoding="UTF-8"?><svg id="Layer_2" xmlns="http://www.w3.org/2000/svg" viewBox="0 0 28.38 39.52"><defs><style>.cls-1{stroke:#003c4c;}.cls-1,.cls-2{fill:none;stroke-linecap:round;stroke-linejoin:round;stroke-width:1.27px;}.cls-2{stroke:#3fc1cc;}</style></defs><g id="Layer_1-2"><g><rect class="cls-1" x=".63" y="18.1" width="27.11" height="20.79" rx="1.81" ry="1.81"/><path class="cls-2" d="M13.32,22.72c-1.28,.3-2.32,1.33-2.64,2.61-.42,1.71,.38,3.26,1.7,4.02v3.21c0,1,.81,1.81,1.81,1.81h0c1,0,1.81-.81,1.81-1.81v-3.21c1.08-.63,1.81-1.78,1.81-3.11,0-2.28-2.11-4.07-4.48-3.51Z"/><path class="cls-1" d="M4.83,18.1V10C4.83,4.83,9.02,.63,14.19,.63h0c5.17,0,9.36,4.19,9.36,9.36v8.1"/><path class="cls-1" d="M7.7,17.96V9.8c0-3.58,2.9-6.49,6.49-6.49h0c3.58,0,6.49,2.9,6.49,6.49v8.16"/></g></g></svg>