<?xml version="1.0" encoding="UTF-8"?><svg id="Layer_2" xmlns="http://www.w3.org/2000/svg" viewBox="0 0 43.5 47.5"><defs><style>.cls-1{stroke:#003c4c;}.cls-1,.cls-2{fill:none;stroke-linecap:round;stroke-linejoin:round;stroke-width:1.5px;}.cls-2{stroke:#1ecad3;}</style></defs><g id="Blue"><g><path class="cls-1" d="M34.75,18.75v-5.71c0-5.9-5.92-12.29-13.5-12.29S7.75,7.14,7.75,13.04v25.71"/><path class="cls-1" d="M30.75,19.75v2.04c0,2.89-1.18,6.01-4.01,7.9"/><path class="cls-1" d="M15.75,6.75c0,5.61,11.34,13,17,13"/><path class="cls-1" d="M15.75,11.75c-2.4,1-5,3.64-5,7v3c.02,3.52,2.61,7.04,6.69,8.85"/><path class="cls-2" d="M24.75,33.75c0,1.1-.9,2-2,2h-1c-1.1,0-2-.9-2-2h0c0-1.1,.9-2,2-2h1c1.1,0,2,.9,2,2h0Z"/><path class="cls-1" d="M24.75,33.75h.03c5.51,0,9.95-3.83,9.95-9.06"/><path class="cls-2" d="M36.75,15.75h-2v9h2c1.1,0,2-.9,2-2v-5c0-1.1-.9-2-2-2Z"/><line class="cls-1" x1="14.75" y1="29.75" x2="14.75" y2="35.75"/><path class="cls-1" d="M11.75,38.75l-5.68,1.26c-2.06,.46-3.72,1.96-4.39,3.96l-.93,2.78"/><path class="cls-1" d="M31.75,38.75l5.68,1.26c2.06,.46,3.72,1.96,4.39,3.96l.93,2.78"/><rect class="cls-2" x="14.63" y="35.8" width="4.24" height="9.9" transform="translate(-23.91 23.78) rotate(-45)"/><rect class="cls-2" x="21.8" y="38.63" width="9.9" height="4.24" transform="translate(-20.98 30.85) rotate(-45)"/></g></g></svg>